<?xml version="1.0" encoding="UTF-8"?>
<svg width="21px" height="15px" viewBox="0 0 21 15" version="1.1" xmlns="http://www.w3.org/2000/svg" xmlns:xlink="http://www.w3.org/1999/xlink">
    <!-- Generator: Sketch 64 (93537) - https://sketch.com -->
    <title>youtube</title>
    <desc>Created with Sketch.</desc>
    <g id="Page-1" stroke="none" stroke-width="1" fill="none" fill-rule="evenodd">
        <g id="youtube" fill="#000000">
            <path d="M20.6891739,3.1968913 C20.6891739,3.1968913 20.4854348,1.7583587 19.8584022,1.12672826 C19.0638587,0.295956522 18.174163,0.290576087 17.7674348,0.242445652 C14.8491848,0.0298369565 10.4662174,0.0298369565 10.4662174,0.0298369565 L10.4585217,0.0298369565 C10.4585217,0.0298369565 6.07747826,0.0298369565 3.15766304,0.242445652 C2.74940217,0.292108696 1.86088043,0.295597826 1.06669565,1.12672826 C0.439304348,1.7583587 0.239804348,3.1968913 0.239804348,3.1968913 C0.239804348,3.1968913 0.0322173913,4.88497826 0.0322173913,6.57655435 L0.0322173913,8.15836957 C0.0322173913,9.84645652 0.239804348,11.5380326 0.239804348,11.5380326 C0.239804348,11.5380326 0.443543478,12.9765326 1.06669565,13.609337 C1.86088043,14.4401087 2.90461957,14.4131413 3.37066304,14.5017391 C5.04143478,14.6611957 10.46775,14.7093261 10.46775,14.7093261 C10.46775,14.7093261 14.8545652,14.7015978 17.7728152,14.4928696 C18.1810761,14.4447065 19.0692065,14.4397174 19.8637826,13.6085543 C20.4911739,12.9769239 20.6945217,11.5368587 20.6945217,11.5368587 C20.6945217,11.5368587 20.9021739,9.84880435 20.9021739,8.15719565 L20.9021739,6.57541304 C20.8979348,4.88729348 20.6903152,3.19575 20.6903152,3.19575 L20.6891739,3.1968913 L20.6891739,3.1968913 Z M8.3043913,10.0775543 L8.3043913,4.21216304 L13.9421739,7.15467391 L8.3043913,10.0775543 L8.3043913,10.0775543 Z" id="Shape"></path>
        </g>
    </g>
</svg>