<?xml version="1.0" encoding="UTF-8"?>
<svg width="15px" height="15px" viewBox="0 0 15 15" version="1.1" xmlns="http://www.w3.org/2000/svg" xmlns:xlink="http://www.w3.org/1999/xlink">
    <!-- Generator: Sketch 53.2 (72643) - https://sketchapp.com -->
    <title>Fill 7</title>
    <desc>Created with Sketch.</desc>
    <g id="Symbols" stroke="none" stroke-width="1" fill="none" fill-rule="evenodd">
        <g id="Menu-kiosk-Copy-5" transform="translate(-1372.000000, -26.000000)" fill="#000000">
            <g id="Group-9" transform="translate(1349.000000, 26.000000)">
                <path d="M36.2693917,15 L24.730399,15 C23.7749023,15 23,14.2248884 23,13.268764 L23,1.73060826 C23,0.77469308 23.7749023,0 24.730399,0 L36.2693917,0 C37.2253069,0 38,0.77469308 38,1.73060826 L38,13.268764 C38,14.2248884 37.2253069,15 36.2693917,15 L36.2693917,15 Z M30.5,4.61530413 C28.9066685,4.61530413 27.6153041,5.90645926 27.6153041,7.49958147 C27.6153041,9.09270368 28.9066685,10.3846959 30.5,10.3846959 C32.0931222,10.3846959 33.3846959,9.09270368 33.3846959,7.49958147 C33.3846959,5.90645926 32.0931222,4.61530413 30.5,4.61530413 L30.5,4.61530413 Z M36.2693917,2.30733817 C36.2693917,1.98883929 36.0111607,1.73060826 35.6918248,1.73060826 L33.961635,1.73060826 C33.6429269,1.73060826 33.3846959,1.98883929 33.3846959,2.30733817 L33.3846959,4.03836496 C33.3846959,4.3570731 33.6429269,4.61530413 33.961635,4.61530413 L35.6918248,4.61530413 C36.0111607,4.61530413 36.2693917,4.3570731 36.2693917,4.03836496 L36.2693917,2.30733817 Z M36.2693917,6.34549386 L34.9637974,6.34549386 C35.058803,6.71484375 35.1150949,7.10072545 35.1150949,7.49958147 C35.1150949,10.0492467 33.0486189,12.1153041 30.5,12.1153041 C27.9511719,12.1153041 25.8846959,10.0492467 25.8846959,7.49958147 C25.8846959,7.10072545 25.941197,6.71484375 26.0364118,6.34549386 L24.730399,6.34549386 L24.730399,12.6922433 C24.730399,13.0103237 24.9888393,13.268764 25.307966,13.268764 L35.6918248,13.268764 C36.0111607,13.268764 36.2693917,13.0103237 36.2693917,12.6922433 L36.2693917,6.34549386 Z" id="Fill-7"></path>
            </g>
        </g>
    </g>
</svg>