<?xml version="1.0" encoding="UTF-8"?>
<svg width="26px" height="15px" viewBox="0 0 26 15" version="1.1" xmlns="http://www.w3.org/2000/svg" xmlns:xlink="http://www.w3.org/1999/xlink">
    <!-- Generator: Sketch 64 (93537) - https://sketch.com -->
    <title>15px icon</title>
    <desc>Created with Sketch.</desc>
    <g id="15px-icon" stroke="none" stroke-width="1" fill="none" fill-rule="evenodd">
        <g id="7b66e8931c93da8c88a0a8b6dec62f9e" fill="#000000" fill-rule="nonzero">
            <path d="M18.1583045,9.72923875 C18.1583045,9.29584775 18.033737,8.90397924 17.7820069,8.55363322 C17.532872,8.2032872 17.2110727,7.95155709 16.8217993,7.79844291 C16.7698962,8.13062284 16.6868512,8.46799308 16.567474,8.81314879 C16.5155709,8.98961938 16.4143599,9.12975779 16.2638408,9.23356401 C16.1133218,9.33737024 15.949827,9.38927336 15.7733564,9.38927336 C15.6851211,9.38927336 15.5968858,9.37889273 15.5086505,9.35553633 C15.2802768,9.28287197 15.1141869,9.14013841 15.0129758,8.9299308 C14.9091696,8.71972318 14.8961938,8.50432526 14.9688581,8.28373702 C15.1375433,7.76211073 15.2231834,7.23529412 15.2231834,6.70588235 C15.2231834,5.80017301 15,4.96453287 14.5510381,4.19377163 C14.1020761,3.42560554 13.4922145,2.81574394 12.7188581,2.36678201 C11.9455017,1.91782007 11.1072664,1.69463668 10.2015571,1.69463668 C9.21539792,1.69463668 8.30709343,1.96453287 7.47404844,2.5017301 C6.64359862,3.03892734 6.02854671,3.75259516 5.63148789,4.64273356 C6.42560554,4.84775087 7.11851211,5.23961938 7.70761246,5.81314879 C7.86851211,5.98183391 7.95155709,6.18425606 7.95155709,6.42041522 C7.95155709,6.65657439 7.87110727,6.85380623 7.70761246,7.01730104 C7.5467128,7.17820069 7.34688581,7.26124567 7.11072664,7.26124567 C6.87456747,7.26124567 6.67214533,7.18079585 6.50346021,7.01730104 C5.95069204,6.46453287 5.28892734,6.18944637 4.51557093,6.18944637 C3.73442907,6.18944637 3.0700692,6.46453287 2.51730104,7.01211073 C1.96453287,7.55968858 1.68944637,8.22404844 1.68944637,9.00519031 C1.68944637,9.78633218 1.96453287,10.450692 2.51730104,10.9982699 C3.0700692,11.5458478 3.73442907,11.8209343 4.51557093,11.8209343 L16.0614187,11.8209343 C16.6427336,11.8209343 17.1384083,11.615917 17.5458478,11.2084775 C17.9532872,10.8010381 18.1583045,10.3027682 18.1583045,9.72923875 L18.1583045,9.72923875 Z M19.8477509,9.72923875 C19.8477509,10.7750865 19.4792388,11.6652249 18.7396194,12.399654 C18,13.1366782 17.1072664,13.5025952 16.0640138,13.5025952 L4.51557093,13.5025952 C3.27249135,13.5025952 2.20847751,13.0640138 1.32612457,12.1842561 C0.443771626,11.3044983 0.00259515571,10.2430796 0.00259515571,9 C0.00259515571,7.87370242 0.371107266,6.89273356 1.10553633,6.05190311 C1.84256055,5.21366782 2.75865052,4.71280277 3.85380623,4.55190311 C4.31055363,3.19723183 5.12283737,2.10207612 6.2932526,1.26124567 C7.46366782,0.423010381 8.76643599,0.00259515571 10.2015571,0.00259515571 C11.9299308,0.00259515571 13.4351211,0.58650519 14.7119377,1.7517301 C15.9887543,2.91695502 16.7128028,4.35207612 16.8814879,6.05190311 C17.7352941,6.23615917 18.4437716,6.67214533 19.0069204,7.35986159 C19.5648789,8.05017301 19.8477509,8.83910035 19.8477509,9.72923875 L19.8477509,9.72923875 Z M22.6064014,9.72923875 C22.6064014,11.016436 22.2482699,12.1920415 21.5346021,13.2508651 C21.365917,13.4948097 21.1297578,13.6141869 20.8287197,13.6141869 C20.6522491,13.6141869 20.4939446,13.567474 20.3538062,13.4714533 C20.1617647,13.3468858 20.0449827,13.1678201 20.0008651,12.9368512 C19.9567474,12.7058824 20.0008651,12.4930796 20.133218,12.3010381 C20.6548443,11.5354671 20.916955,10.6790657 20.916955,9.72923875 C20.916955,8.77941176 20.6548443,7.92301038 20.133218,7.15743945 C20.0008651,6.96539792 19.9567474,6.75519031 20.0008651,6.52941176 C20.0449827,6.30103806 20.1617647,6.12197232 20.3538062,5.98961938 C20.5458478,5.85726644 20.7560554,5.81574394 20.9896194,5.86245675 C21.2205882,5.90916955 21.4048443,6.03114187 21.5371972,6.22058824 C22.2508651,7.26384083 22.6064014,8.43425606 22.6064014,9.72923875 L22.6064014,9.72923875 Z M25.432526,9.72923875 C25.432526,11.5250865 24.9394464,13.1548443 23.9532872,14.6185121 C23.7846021,14.8676471 23.5484429,14.9948097 23.2474048,14.9948097 C23.0787197,14.9948097 22.9230104,14.9480969 22.782872,14.8520761 C22.5908304,14.7197232 22.4714533,14.5380623 22.4247405,14.3122837 C22.3780277,14.08391 22.4195502,13.8737024 22.5519031,13.6842561 C23.3460208,12.4775087 23.7430796,11.1591696 23.7430796,9.73183391 C23.7430796,8.2967128 23.3460208,6.98356401 22.5519031,5.79238754 C22.4195502,5.60034602 22.3780277,5.39013841 22.4247405,5.15657439 C22.4714533,4.92560554 22.5934256,4.74653979 22.782872,4.62197232 C22.9749135,4.48961938 23.1851211,4.44550173 23.4108997,4.48961938 C23.6392734,4.53373702 23.8183391,4.65570934 23.950692,4.85294118 C24.9394464,6.30882353 25.432526,7.933391 25.432526,9.72923875 L25.432526,9.72923875 Z" id="Shape"></path>
        </g>
    </g>
</svg>