<?xml version="1.0" encoding="UTF-8"?>
<svg width="14px" height="15px" viewBox="0 0 14 15" version="1.1" xmlns="http://www.w3.org/2000/svg" xmlns:xlink="http://www.w3.org/1999/xlink">
    <!-- Generator: Sketch 53.2 (72643) - https://sketchapp.com -->
    <title>Group 3</title>
    <desc>Created with Sketch.</desc>
    <defs>
        <polygon id="path-1" points="0 0.0338450704 13.99996 0.0338450704 13.99996 14.8225775 0 14.8225775"></polygon>
    </defs>
    <g id="Symbols" stroke="none" stroke-width="1" fill="none" fill-rule="evenodd">
        <g id="Menu-kiosk-Copy-5" transform="translate(-1349.000000, -26.000000)">
            <g id="Group-9" transform="translate(1349.000000, 26.000000)">
                <g id="Group-3">
                    <mask id="mask-2" fill="white">
                        <use xlink:href="#path-1"></use>
                    </mask>
                    <g id="Clip-2"></g>
                    <path d="M13.22736,0.0338450704 L0.77276,0.0338450704 C0.34596,0.0338450704 -4e-05,0.399126761 -4e-05,0.849971831 L-4e-05,14.0064507 C-4e-05,14.4572958 0.34596,14.8225775 0.77276,14.8225775 L7.47776,14.8225775 L7.47776,9.09574648 L5.65336,9.09574648 L5.65336,6.86370423 L7.47776,6.86370423 L7.47776,5.21771831 C7.47776,3.30764789 8.58216,2.2673662 10.19536,2.2673662 C10.96796,2.2673662 11.63196,2.328 11.82556,2.35525352 L11.82556,4.35152113 L10.70696,4.35194366 C9.82956,4.35194366 9.65976,4.79243662 9.65976,5.43870423 L9.65976,6.86370423 L11.75196,6.86370423 L11.47976,9.09574648 L9.65976,9.09574648 L9.65976,14.8225775 L13.22736,14.8225775 C13.65416,14.8225775 13.99996,14.4572958 13.99996,14.0064507 L13.99996,0.849971831 C13.99996,0.399126761 13.65416,0.0338450704 13.22736,0.0338450704" id="Fill-1" fill="#000000" mask="url(#mask-2)"></path>
                </g>
            </g>
        </g>
    </g>
</svg>