<?xml version="1.0" encoding="UTF-8"?>
<svg width="15px" height="15px" viewBox="0 0 15 15" version="1.1" xmlns="http://www.w3.org/2000/svg" xmlns:xlink="http://www.w3.org/1999/xlink">
    <!-- Generator: Sketch 64 (93537) - https://sketch.com -->
    <title>iconfinder_soundcloud_312648</title>
    <desc>Created with Sketch.</desc>
    <g id="Page-1" stroke="none" stroke-width="1" fill="none" fill-rule="evenodd">
        <g id="iconfinder_soundcloud_312648" fill="#000000" fill-rule="nonzero">
            <path d="M1.5,0 C0.669,0 0,0.669 0,1.5 L0,13.5 C0,14.331 0.669,15 1.5,15 L13.5,15 C14.331,15 15,14.331 15,13.5 L15,1.5 C15,0.669 14.331,0 13.5,0 L1.5,0 Z M8.7253125,4.7990625 C10.0302213,4.7990625 11.099517,5.7995829 11.2125,7.0753125 C11.3808078,7.005048 11.566248,6.965625 11.76,6.965625 C12.5417781,6.965625 13.175625,7.5985347 13.175625,8.3803125 C13.175625,9.1620906 12.5420115,9.7959375 11.76,9.7959375 C11.7347889,9.7959375 7.8402978,9.7945305 7.8365625,9.7940625 C7.7520588,9.7851921 7.684683,9.7130919 7.68375,9.6271875 L7.68375,5.1346875 C7.684683,5.0518176 7.7125404,5.0100681 7.8196875,4.96875 C8.0944419,4.8623031 8.4057384,4.7990625 8.7253125,4.7990625 Z M7.3940625,5.13 C7.4790336,5.13 7.5485205,5.199954 7.5496875,5.285625 L7.6190625,8.4740625 L7.5496875,9.6309375 C7.5482865,9.7161417 7.4787999,9.785625 7.3940625,9.785625 C7.3093251,9.785625 7.2398385,9.7161456 7.2384375,9.631875 L7.1746875,8.4740625 L7.2384375,5.285625 C7.2398385,5.199954 7.3093251,5.13 7.3940625,5.13 Z M6.89625,5.405625 C6.9010872,5.40513 6.905352,5.405625 6.9103125,5.405625 C6.9894474,5.405625 7.0549275,5.4706353 7.0565625,5.5509375 L7.1184375,8.4740625 L7.0565625,9.6478125 L7.0565625,9.6487485 C7.0544295,9.7286085 6.9891312,9.7931235 6.9103125,9.7931235 C6.8309442,9.7931235 6.766401,9.7271793 6.765,9.647811 C6.765,9.647811 6.7096875,8.4754575 6.7096875,8.4731235 L6.765,5.5509375 C6.766314,5.4756543 6.823692,5.4130743 6.89625,5.405625 Z M5.465625,5.74125 C5.5291197,5.74125 5.579775,5.7914337 5.581875,5.8565625 L5.664375,8.473125 L5.581875,9.6740625 C5.579775,9.7387242 5.5291197,9.789375 5.465625,9.789375 C5.402364,9.789375 5.3505375,9.7384905 5.3484375,9.6740625 L5.27625,8.473125 L5.3484375,5.8565625 C5.3505375,5.7914337 5.402364,5.74125 5.465625,5.74125 Z M5.94375,5.7974985 C6.0126138,5.7974985 6.0684465,5.8528608 6.0703125,5.923125 L6.144375,8.473125 L6.0703125,9.6628125 L6.0703125,9.6637485 C6.0679695,9.7335612 6.0123018,9.788436 5.94375,9.788436 C5.8744197,9.788436 5.8185885,9.7326084 5.8171875,9.662811 L5.750625,8.4731235 L5.8171875,5.9231235 C5.8188225,5.8528593 5.8744197,5.7974985 5.94375,5.7974985 L5.94375,5.7974985 Z M4.99125,5.8359375 C5.0486754,5.8359375 5.095791,5.8821153 5.098125,5.941875 L5.18625,8.473125 L5.098125,9.6815625 L5.098125,9.6824985 C5.095329,9.7413372 5.0483685,9.7874985 4.99125,9.7874985 C4.9331244,9.7874985 4.886244,9.7403871 4.884375,9.681561 L4.805625,8.4731235 L4.884375,5.9418735 C4.886475,5.8821153 4.9331244,5.8359375 4.99125,5.8359375 Z M6.425625,5.8809375 C6.5000913,5.8809375 6.5596965,5.9412417 6.5615625,6.016875 L6.63,8.473125 L6.5615625,9.654375 C6.5596935,9.7304754 6.5000913,9.7903125 6.425625,9.7903125 C6.3506919,9.7903125 6.2910885,9.7309497 6.2896875,9.65625 L6.2278125,8.473125 L6.28875,6.016875 C6.290385,5.9407746 6.3506919,5.8809375 6.425625,5.8809375 Z M4.520625,6.040311 C4.572681,6.040311 4.615557,6.0827178 4.618125,6.136875 L4.7128125,8.473125 L4.618125,9.69375 L4.618125,9.694686 C4.6151076,9.7479321 4.5721455,9.7893735 4.520625,9.7893735 C4.4688021,9.7893735 4.4263965,9.7469718 4.4240625,9.6937485 L4.3396875,8.4731235 L4.4240625,6.1368735 C4.4263965,6.0827163 4.4685687,6.040311 4.520625,6.040311 L4.520625,6.040311 Z M4.05375,6.4846875 C4.0999704,6.4846875 4.1383695,6.5226162 4.1409375,6.5709375 L4.243125,8.4721875 L4.1409375,9.70125 C4.1383695,9.7495713 4.0999704,9.7875 4.05375,9.7875 C4.0072962,9.7875 3.9691305,9.7491045 3.9665625,9.70125 L3.8765625,8.4721875 L3.9665625,6.5709375 C3.9691305,6.5226162 4.0072962,6.4846875 4.05375,6.4846875 Z M3.13125,7.145625 C3.1662654,7.145625 3.1954818,7.1739039 3.19875,7.2121875 L3.3140625,8.4721875 L3.19875,9.6909375 C3.1954818,9.728754 3.1662654,9.7565625 3.13125,9.7565625 C3.0953007,9.7565625 3.066552,9.728754 3.06375,9.6909375 L2.9615625,8.4721875 L3.06375,7.2121875 C3.066552,7.1739039 3.0955344,7.145625 3.13125,7.145625 Z M2.675625,7.1896875 C2.705505,7.1896875 2.7290775,7.213023 2.7328125,7.2459375 L2.8546875,8.4721875 L2.7328125,9.654375 C2.7293109,9.686589 2.705505,9.7096875 2.675625,9.7096875 C2.6452782,9.7096875 2.6205348,9.686352 2.6175,9.6534375 L2.510625,8.4721875 C2.510625,8.4721875 2.6175,7.2464025 2.6175,7.2459375 C2.6205348,7.2132564 2.6452782,7.1896875 2.675625,7.1896875 Z M3.590625,7.227186 C3.6317097,7.227186 3.6656355,7.2597057 3.6684375,7.303125 L3.7771875,8.4721875 L3.6684375,9.7003125 L3.6684375,9.7012485 C3.6649992,9.7444299 3.6314166,9.777186 3.590625,9.777186 C3.5488398,9.777186 3.516318,9.7441971 3.51375,9.700311 L3.4171875,8.472186 L3.51375,7.3031235 C3.516318,7.2599376 3.5490732,7.227186 3.590625,7.227186 L3.590625,7.227186 Z M2.2228125,7.3921875 C2.24709,7.3921875 2.2675941,7.410813 2.2715625,7.438125 L2.4,8.4721875 L2.2715625,9.4828125 C2.2675941,9.5101245 2.2480275,9.52875 2.22375,9.52875 C2.1994728,9.52875 2.1785016,9.5096577 2.175,9.4828125 L2.0615625,8.4721875 C2.0615625,8.4721875 2.175,7.438593 2.175,7.438125 C2.1785016,7.4117466 2.1985353,7.3921875 2.2228125,7.3921875 Z M1.798125,7.7878125 C1.8214686,7.7878125 1.8405609,7.8064344 1.8440625,7.8328125 L1.9434375,8.4721875 L1.8440625,9.1003125 C1.8403275,9.1262241 1.8214686,9.1453125 1.798125,9.1453125 C1.7743146,9.1453125 1.7545182,9.1266909 1.75125,9.1003125 L1.6678125,8.4721875 L1.75125,7.8328125 C1.7545182,7.8064344 1.7740809,7.7878125 1.798125,7.7878125 Z" id="rect2986"></path>
        </g>
    </g>
</svg>