<?xml version="1.0" encoding="UTF-8"?>
<svg width="15px" height="12px" viewBox="0 0 15 12" version="1.1" xmlns="http://www.w3.org/2000/svg" xmlns:xlink="http://www.w3.org/1999/xlink">
    <!-- Generator: Sketch 53.2 (72643) - https://sketchapp.com -->
    <title>Group 6</title>
    <desc>Created with Sketch.</desc>
    <defs>
        <polygon id="path-1" points="0.0445 0.152054237 14.9777083 0.152054237 14.9777083 11.9999186 0.0445 11.9999186"></polygon>
    </defs>
    <g id="Symbols" stroke="none" stroke-width="1" fill="none" fill-rule="evenodd">
        <g id="Menu-kiosk-Copy-5" transform="translate(-1398.000000, -28.000000)">
            <g id="Group-9" transform="translate(1349.000000, 26.000000)">
                <g id="Group-6" transform="translate(49.000000, 2.000000)">
                    <mask id="mask-2" fill="white">
                        <use xlink:href="#path-1"></use>
                    </mask>
                    <g id="Clip-5"></g>
                    <path d="M14.9778333,1.55463051 C14.4284583,1.79259661 13.8380417,1.95327458 13.2180417,2.02547797 C13.85075,1.65530847 14.3365833,1.06913898 14.5653333,0.370901695 C13.97325,0.713410169 13.317625,0.962562712 12.6199167,1.09659661 C12.06075,0.515308475 11.2645,0.152054237 10.3834583,0.152054237 C8.69116667,0.152054237 7.3195,1.49117288 7.3195,3.14310508 C7.3195,3.37761356 7.34679167,3.60581695 7.398875,3.82466441 C4.85241667,3.69998644 2.59491667,2.50913898 1.08429167,0.699579661 C0.820333333,1.14134237 0.669083333,1.65510508 0.669083333,2.20324068 C0.669083333,3.24093559 1.210125,4.15639322 2.03220833,4.69293559 C1.52991667,4.67747797 1.057625,4.54263051 0.6445,4.31869831 C0.644291667,4.33110508 0.644291667,4.34371525 0.644291667,4.35632542 C0.644291667,5.80547797 1.70033333,7.01442712 3.102,7.28920678 C2.84491667,7.35754576 2.57408333,7.39415593 2.29470833,7.39415593 C2.09741667,7.39415593 1.90533333,7.37524068 1.71825,7.34046102 C2.10825,8.52866441 3.2395,9.39347797 4.58033333,9.41768136 C3.53179167,10.2198508 2.21075,10.6980203 0.775333333,10.6980203 C0.528041667,10.6980203 0.284291667,10.6839864 0.0445,10.6563254 C1.40033333,11.5050712 3.01075,11.9999186 4.74095833,11.9999186 C10.3761667,11.9999186 13.4580417,7.44235932 13.4580417,3.48988475 C13.4580417,3.36012203 13.4547083,3.23117288 13.4490833,3.1028339 C14.047625,2.68120678 14.5672083,2.15442712 14.9778333,1.55463051" id="Fill-4" fill="#000000" mask="url(#mask-2)"></path>
                </g>
            </g>
        </g>
    </g>
</svg>