<svg width="134" height="33" viewBox="0 0 134 33" fill="none" xmlns="http://www.w3.org/2000/svg">
<path d="M33.1703 14.7434V0H36.0736V12.2142H44.5837V14.7434H33.1703Z" fill="black"/>
<path d="M46.3093 14.7434V0H49.2126V14.7434H46.3093Z" fill="black"/>
<path d="M62.6355 0H65.8228L60.174 14.7434H56.4081L50.6331 0H53.8835L58.3542 11.7618L62.6355 0Z" fill="black"/>
<path d="M67.3065 14.7434V8.66578H70.2098V6.07528H67.3065V0H78.7198V2.5292H70.2098V6.07528H77.4259V8.66578H70.2098V12.2142H78.9407V14.7434H67.3065Z" fill="black"/>
<path d="M81.1186 14.7434V0H87.9035C90.8384 0 92.7529 1.4555 92.7529 4.36099C92.7529 6.94226 90.8384 8.68124 87.9035 8.68124H84.0219V14.7434H81.1186ZM84.0219 6.06008H87.5774C89.0501 6.06008 89.839 5.36367 89.839 4.33034C89.839 3.218 89.0501 2.5292 87.5774 2.5292H84.0219V6.06008Z" fill="black"/>
<path d="M94.7414 14.7434V8.66578H97.6447V6.07528H94.7414V0H106.155V2.5292H97.6447V6.07528H104.861V8.66578H97.6447V12.2142H106.376V14.7434H94.7414Z" fill="black"/>
<path d="M108.554 14.7434V8.66578H111.457V6.07528H108.554V0H119.967V2.5292H111.457V6.07528H118.673V8.66578H111.457V12.2142H120.188V14.7434H108.554Z" fill="black"/>
<path d="M122.366 14.7434V0H129.372C132.026 0.000535544 134 1.27154 134 3.67253C134 5.50155 133.158 6.61393 131.433 7.24109C133.001 7.24109 133.779 7.94022 133.779 9.32819V14.7434H130.876V10.0376C130.876 8.97863 130.56 8.67019 129.477 8.67019H125.269V14.7434H122.366ZM125.269 6.06979H128.509C130.203 6.06979 131.086 5.51693 131.086 4.30939C131.086 3.10186 130.234 2.5292 128.509 2.5292H125.269V6.06979Z" fill="black"/>
<path d="M32.0211 27.0473H34.8323C34.9338 28.5177 36.0299 29.6079 38.1611 29.6079H38.3641C39.8864 29.6079 40.7389 28.8178 40.7389 27.8675C40.7389 26.9973 40.3431 26.5372 39.0948 26.2872L36.4967 25.757C33.9494 25.2269 32.7518 23.8066 32.7518 21.6161C32.7112 19.4356 34.8222 17.2751 38.2626 17.3151C41.7132 17.2851 43.8039 19.3056 43.7734 22.0262H40.9622C40.8709 20.5759 39.8052 19.7757 38.2626 19.7757H38.0495C36.5373 19.7757 35.563 20.5859 35.563 21.5161C35.563 22.4463 36.0705 22.8864 37.3289 23.1364L39.5109 23.5665C42.0989 24.0767 43.54 25.407 43.54 27.6575C43.5705 30.1181 41.4392 32.0885 37.948 32.0585C34.0305 32.0585 32.1429 30.078 32.0211 27.0473Z" fill="black"/>
<path d="M49.573 31.8585V19.9757H44.5493V17.5151H57.4384V19.9757H52.3842V31.8585H49.573Z" fill="black"/>
<path d="M59.0334 26.8373V17.5151H61.8345V26.4272C61.8345 28.6577 62.7377 29.6079 64.6457 29.6079H64.8487C66.7465 29.6079 67.6599 28.6577 67.6599 26.4272V17.5151H70.461V26.8373C70.461 30.1981 68.6038 32.0585 64.7472 32.0585C60.8907 32.0585 59.0334 30.1981 59.0334 26.8373Z" fill="black"/>
<path d="M72.7474 31.8585V17.5151H77.7305C82.1249 17.4951 85.1391 20.0657 85.1087 24.6868C85.1391 29.3179 82.2162 31.8885 77.8421 31.8585H72.7474ZM75.5485 29.3979H77.5275C79.0397 29.3979 80.2169 29.0378 81.0491 28.3176C81.8915 27.5975 82.3076 26.3872 82.3076 24.6868C82.3076 22.9964 81.8915 21.7861 81.0491 21.066C80.2169 20.3358 79.0397 19.9757 77.5275 19.9757H75.5485V29.3979Z" fill="black"/>
<path d="M86.5693 31.8585V17.5151H89.3704V31.8585H86.5693Z" fill="black"/>
<path d="M91.0327 24.6868C90.9921 20.1658 93.9555 17.2651 98.0962 17.3151C102.237 17.2651 105.221 20.1658 105.17 24.6868C105.221 29.2078 102.237 32.1085 98.0962 32.0585C93.9555 32.1085 90.9921 29.2078 91.0327 24.6868ZM97.9948 29.6079H98.2079C100.796 29.6079 102.359 27.7475 102.359 24.6868C102.359 21.6161 100.796 19.7757 98.2079 19.7757H97.9948C95.4068 19.7757 93.8439 21.6161 93.8439 24.6868C93.8439 27.7475 95.4068 29.6079 97.9948 29.6079Z" fill="black"/>
<path d="M2.09017e-07 7.41815L0 2.68085H4.79492L4.79492 7.41815H2.09017e-07Z" fill="black"/>
<path d="M8.79808 12.9345V8.19716H13.593L13.593 12.9345H8.79808Z" fill="black"/>
<path d="M17.5962 18.4567V13.7194H22.3911L22.3911 18.4567H17.5962Z" fill="black"/>
<path d="M8.79808 23.9671V19.2298H13.593L13.593 23.9671H8.79808Z" fill="black"/>
<path d="M2.09017e-07 29.4894L0 24.7521H4.79492L4.79492 29.4894H2.09017e-07Z" fill="black"/>
<path d="M2.09017e-07 18.4567L0 13.7194H4.79492L4.79492 18.4567H2.09017e-07Z" fill="black"/>
</svg>
